<mxfile modified="2020-11-17T13:27:27.961Z" host="app.diagrams.net" agent="5.0 (Windows NT 10.0; Win64; x64) AppleWebKit/537.36 (KHTML, like Gecko) Chrome/86.0.4240.198 Safari/537.36" etag="VhgnATeUpb5z1us6zXY_" version="13.9.9" type="github">
  <diagram id="lLHkScI9PSYPUKfBsZe1" name="Page-2">
    <mxGraphModel dx="868" dy="450" grid="1" gridSize="10" guides="1" tooltips="1" connect="1" arrows="1" fold="1" page="1" pageScale="1" pageWidth="827" pageHeight="1169" math="0" shadow="0">
      <root>
        <mxCell id="ax7BwXuERNCg8nd2nYM4-0" />
        <mxCell id="ax7BwXuERNCg8nd2nYM4-1" parent="ax7BwXuERNCg8nd2nYM4-0" />
        <mxCell id="NClrPfWND0hd3lDHsP1I-1" style="edgeStyle=orthogonalEdgeStyle;rounded=0;orthogonalLoop=1;jettySize=auto;html=1;" edge="1" parent="ax7BwXuERNCg8nd2nYM4-1" source="NClrPfWND0hd3lDHsP1I-0">
          <mxGeometry relative="1" as="geometry">
            <mxPoint x="200" y="230" as="targetPoint" />
          </mxGeometry>
        </mxCell>
        <mxCell id="NClrPfWND0hd3lDHsP1I-0" value="URL&lt;br&gt;" style="ellipse;whiteSpace=wrap;html=1;" vertex="1" parent="ax7BwXuERNCg8nd2nYM4-1">
          <mxGeometry x="20" y="190" width="120" height="80" as="geometry" />
        </mxCell>
        <mxCell id="NClrPfWND0hd3lDHsP1I-3" style="edgeStyle=orthogonalEdgeStyle;rounded=0;orthogonalLoop=1;jettySize=auto;html=1;" edge="1" parent="ax7BwXuERNCg8nd2nYM4-1" source="NClrPfWND0hd3lDHsP1I-2">
          <mxGeometry relative="1" as="geometry">
            <mxPoint x="370" y="220" as="targetPoint" />
          </mxGeometry>
        </mxCell>
        <mxCell id="NClrPfWND0hd3lDHsP1I-2" value="Extract Texte et&lt;br&gt;URLs" style="shape=note;whiteSpace=wrap;html=1;backgroundOutline=1;darkOpacity=0.05;" vertex="1" parent="ax7BwXuERNCg8nd2nYM4-1">
          <mxGeometry x="210" y="170" width="80" height="100" as="geometry" />
        </mxCell>
        <mxCell id="NClrPfWND0hd3lDHsP1I-5" style="edgeStyle=orthogonalEdgeStyle;rounded=0;orthogonalLoop=1;jettySize=auto;html=1;exitX=0.5;exitY=0;exitDx=0;exitDy=0;" edge="1" parent="ax7BwXuERNCg8nd2nYM4-1" source="NClrPfWND0hd3lDHsP1I-4">
          <mxGeometry relative="1" as="geometry">
            <mxPoint x="540" y="150" as="targetPoint" />
            <mxPoint x="500" y="220" as="sourcePoint" />
            <Array as="points">
              <mxPoint x="500" y="220" />
              <mxPoint x="500" y="150" />
            </Array>
          </mxGeometry>
        </mxCell>
        <mxCell id="NClrPfWND0hd3lDHsP1I-6" style="edgeStyle=orthogonalEdgeStyle;rounded=0;orthogonalLoop=1;jettySize=auto;html=1;" edge="1" parent="ax7BwXuERNCg8nd2nYM4-1" source="NClrPfWND0hd3lDHsP1I-4">
          <mxGeometry relative="1" as="geometry">
            <mxPoint x="550" y="280" as="targetPoint" />
            <Array as="points">
              <mxPoint x="500" y="220" />
              <mxPoint x="500" y="280" />
            </Array>
          </mxGeometry>
        </mxCell>
        <mxCell id="NClrPfWND0hd3lDHsP1I-4" value="Destecter&lt;br&gt;la langue de la page" style="rounded=0;whiteSpace=wrap;html=1;direction=south;" vertex="1" parent="ax7BwXuERNCg8nd2nYM4-1">
          <mxGeometry x="370" y="160" width="70" height="120" as="geometry" />
        </mxCell>
        <mxCell id="NClrPfWND0hd3lDHsP1I-8" style="edgeStyle=orthogonalEdgeStyle;rounded=0;orthogonalLoop=1;jettySize=auto;html=1;entryX=0;entryY=0.5;entryDx=0;entryDy=0;" edge="1" parent="ax7BwXuERNCg8nd2nYM4-1" source="NClrPfWND0hd3lDHsP1I-7" target="NClrPfWND0hd3lDHsP1I-9">
          <mxGeometry relative="1" as="geometry">
            <mxPoint x="660" y="150" as="targetPoint" />
            <Array as="points" />
          </mxGeometry>
        </mxCell>
        <mxCell id="NClrPfWND0hd3lDHsP1I-7" value="Autres langues" style="text;html=1;strokeColor=none;fillColor=none;align=center;verticalAlign=middle;whiteSpace=wrap;rounded=0;" vertex="1" parent="ax7BwXuERNCg8nd2nYM4-1">
          <mxGeometry x="550" y="140" width="40" height="20" as="geometry" />
        </mxCell>
        <mxCell id="NClrPfWND0hd3lDHsP1I-22" style="edgeStyle=orthogonalEdgeStyle;rounded=0;orthogonalLoop=1;jettySize=auto;html=1;entryX=0.417;entryY=0;entryDx=0;entryDy=0;entryPerimeter=0;" edge="1" parent="ax7BwXuERNCg8nd2nYM4-1" target="NClrPfWND0hd3lDHsP1I-0">
          <mxGeometry relative="1" as="geometry">
            <mxPoint x="70" y="180" as="targetPoint" />
            <mxPoint x="705" y="100" as="sourcePoint" />
            <Array as="points">
              <mxPoint x="70" y="110" />
            </Array>
          </mxGeometry>
        </mxCell>
        <mxCell id="NClrPfWND0hd3lDHsP1I-9" value="arret du processus" style="shape=sumEllipse;perimeter=ellipsePerimeter;whiteSpace=wrap;html=1;backgroundOutline=1;" vertex="1" parent="ax7BwXuERNCg8nd2nYM4-1">
          <mxGeometry x="660" y="110" width="90" height="80" as="geometry" />
        </mxCell>
        <mxCell id="NClrPfWND0hd3lDHsP1I-12" style="edgeStyle=orthogonalEdgeStyle;rounded=0;orthogonalLoop=1;jettySize=auto;html=1;entryX=0.008;entryY=0.617;entryDx=0;entryDy=0;entryPerimeter=0;" edge="1" parent="ax7BwXuERNCg8nd2nYM4-1">
          <mxGeometry relative="1" as="geometry">
            <mxPoint x="610" y="277" as="sourcePoint" />
            <mxPoint x="670.96" y="277.02" as="targetPoint" />
            <Array as="points">
              <mxPoint x="635" y="280" />
              <mxPoint x="635" y="277" />
              <mxPoint x="661" y="277" />
            </Array>
          </mxGeometry>
        </mxCell>
        <mxCell id="NClrPfWND0hd3lDHsP1I-10" value="FR&amp;nbsp; EN" style="text;html=1;strokeColor=none;fillColor=none;align=center;verticalAlign=middle;whiteSpace=wrap;rounded=0;" vertex="1" parent="ax7BwXuERNCg8nd2nYM4-1">
          <mxGeometry x="550" y="270" width="60" height="20" as="geometry" />
        </mxCell>
        <mxCell id="NClrPfWND0hd3lDHsP1I-16" style="edgeStyle=orthogonalEdgeStyle;rounded=0;orthogonalLoop=1;jettySize=auto;html=1;entryX=1;entryY=0.5;entryDx=0;entryDy=0;" edge="1" parent="ax7BwXuERNCg8nd2nYM4-1" source="NClrPfWND0hd3lDHsP1I-15" target="NClrPfWND0hd3lDHsP1I-17">
          <mxGeometry relative="1" as="geometry">
            <mxPoint x="610" y="410" as="targetPoint" />
            <Array as="points">
              <mxPoint x="750" y="410" />
            </Array>
          </mxGeometry>
        </mxCell>
        <mxCell id="NClrPfWND0hd3lDHsP1I-15" value="Generer les mots cles&amp;nbsp;" style="rounded=0;whiteSpace=wrap;html=1;" vertex="1" parent="ax7BwXuERNCg8nd2nYM4-1">
          <mxGeometry x="670" y="250" width="120" height="60" as="geometry" />
        </mxCell>
        <mxCell id="NClrPfWND0hd3lDHsP1I-19" style="edgeStyle=orthogonalEdgeStyle;rounded=0;orthogonalLoop=1;jettySize=auto;html=1;entryX=1;entryY=0.5;entryDx=0;entryDy=0;entryPerimeter=0;" edge="1" parent="ax7BwXuERNCg8nd2nYM4-1" source="NClrPfWND0hd3lDHsP1I-17" target="NClrPfWND0hd3lDHsP1I-18">
          <mxGeometry relative="1" as="geometry" />
        </mxCell>
        <mxCell id="NClrPfWND0hd3lDHsP1I-17" value="recuperer pdf ,image,&lt;br&gt;videos ,url" style="rounded=0;whiteSpace=wrap;html=1;" vertex="1" parent="ax7BwXuERNCg8nd2nYM4-1">
          <mxGeometry x="450" y="380" width="120" height="60" as="geometry" />
        </mxCell>
        <mxCell id="NClrPfWND0hd3lDHsP1I-20" style="edgeStyle=orthogonalEdgeStyle;rounded=0;orthogonalLoop=1;jettySize=auto;html=1;" edge="1" parent="ax7BwXuERNCg8nd2nYM4-1" source="NClrPfWND0hd3lDHsP1I-18" target="NClrPfWND0hd3lDHsP1I-0">
          <mxGeometry relative="1" as="geometry">
            <mxPoint x="70" y="330" as="targetPoint" />
          </mxGeometry>
        </mxCell>
        <mxCell id="NClrPfWND0hd3lDHsP1I-18" value="Stocker&lt;br&gt;ces informations" style="shape=cylinder3;whiteSpace=wrap;html=1;boundedLbl=1;backgroundOutline=1;size=15;" vertex="1" parent="ax7BwXuERNCg8nd2nYM4-1">
          <mxGeometry x="230" y="360" width="70" height="100" as="geometry" />
        </mxCell>
        <mxCell id="NClrPfWND0hd3lDHsP1I-21" value="Next URL" style="text;html=1;strokeColor=none;fillColor=none;align=center;verticalAlign=middle;whiteSpace=wrap;rounded=0;" vertex="1" parent="ax7BwXuERNCg8nd2nYM4-1">
          <mxGeometry x="90" y="390" width="60" height="20" as="geometry" />
        </mxCell>
        <mxCell id="NClrPfWND0hd3lDHsP1I-23" value="Next URL" style="text;html=1;strokeColor=none;fillColor=none;align=center;verticalAlign=middle;whiteSpace=wrap;rounded=0;" vertex="1" parent="ax7BwXuERNCg8nd2nYM4-1">
          <mxGeometry x="320" y="90" width="60" height="20" as="geometry" />
        </mxCell>
      </root>
    </mxGraphModel>
  </diagram>
</mxfile>
